<svg width="84" height="84" viewBox="0 0 84 84" fill="none" xmlns="http://www.w3.org/2000/svg">
<path d="M4 2C4 3.10449 3.10449 4 2 4C0.895508 4 0 3.10449 0 2C0 0.895508 0.895508 0 2 0C3.10449 0 4 0.895508 4 2Z" fill="white" fill-opacity="0.2" style="mix-blend-mode:screen"/>
<path d="M24 2C24 3.10449 23.1045 4 22 4C20.8955 4 20 3.10449 20 2C20 0.895508 20.8955 0 22 0C23.1045 0 24 0.895508 24 2Z" fill="white" fill-opacity="0.2" style="mix-blend-mode:screen"/>
<path d="M42 4C43.1045 4 44 3.10449 44 2C44 0.895508 43.1045 0 42 0C40.8955 0 40 0.895508 40 2C40 3.10449 40.8955 4 42 4Z" fill="white" fill-opacity="0.2" style="mix-blend-mode:screen"/>
<path d="M64 2C64 3.10449 63.1045 4 62 4C60.8955 4 60 3.10449 60 2C60 0.895508 60.8955 0 62 0C63.1045 0 64 0.895508 64 2Z" fill="white" fill-opacity="0.2" style="mix-blend-mode:screen"/>
<path d="M82 4C83.1045 4 84 3.10449 84 2C84 0.895508 83.1045 0 82 0C80.8955 0 80 0.895508 80 2C80 3.10449 80.8955 4 82 4Z" fill="white" fill-opacity="0.2" style="mix-blend-mode:screen"/>
<path d="M4 22C4 23.1045 3.10449 24 2 24C0.895508 24 0 23.1045 0 22C0 20.8955 0.895508 20 2 20C3.10449 20 4 20.8955 4 22Z" fill="white" fill-opacity="0.2" style="mix-blend-mode:screen"/>
<path d="M24 22C24 23.1045 23.1045 24 22 24C20.8955 24 20 23.1045 20 22C20 20.8955 20.8955 20 22 20C23.1045 20 24 20.8955 24 22Z" fill="white" fill-opacity="0.2" style="mix-blend-mode:screen"/>
<path d="M42 24C43.1045 24 44 23.1045 44 22C44 20.8955 43.1045 20 42 20C40.8955 20 40 20.8955 40 22C40 23.1045 40.8955 24 42 24Z" fill="white" fill-opacity="0.2" style="mix-blend-mode:screen"/>
<path d="M64 22C64 23.1045 63.1045 24 62 24C60.8955 24 60 23.1045 60 22C60 20.8955 60.8955 20 62 20C63.1045 20 64 20.8955 64 22Z" fill="white" fill-opacity="0.2" style="mix-blend-mode:screen"/>
<path d="M82 24C83.1045 24 84 23.1045 84 22C84 20.8955 83.1045 20 82 20C80.8955 20 80 20.8955 80 22C80 23.1045 80.8955 24 82 24Z" fill="white" fill-opacity="0.2" style="mix-blend-mode:screen"/>
<path d="M2 44C3.10449 44 4 43.1045 4 42C4 40.8955 3.10449 40 2 40C0.895508 40 0 40.8955 0 42C0 43.1045 0.895508 44 2 44Z" fill="white" fill-opacity="0.2" style="mix-blend-mode:screen"/>
<path d="M22 44C23.1045 44 24 43.1045 24 42C24 40.8955 23.1045 40 22 40C20.8955 40 20 40.8955 20 42C20 43.1045 20.8955 44 22 44Z" fill="white" fill-opacity="0.2" style="mix-blend-mode:screen"/>
<path d="M44 42C44 43.1045 43.1045 44 42 44C40.8955 44 40 43.1045 40 42C40 40.8955 40.8955 40 42 40C43.1045 40 44 40.8955 44 42Z" fill="white" fill-opacity="0.2" style="mix-blend-mode:screen"/>
<path d="M62 44C63.1045 44 64 43.1045 64 42C64 40.8955 63.1045 40 62 40C60.8955 40 60 40.8955 60 42C60 43.1045 60.8955 44 62 44Z" fill="white" fill-opacity="0.2" style="mix-blend-mode:screen"/>
<path d="M84 42C84 43.1045 83.1045 44 82 44C80.8955 44 80 43.1045 80 42C80 40.8955 80.8955 40 82 40C83.1045 40 84 40.8955 84 42Z" fill="white" fill-opacity="0.2" style="mix-blend-mode:screen"/>
<path d="M4 62C4 63.1045 3.10449 64 2 64C0.895508 64 0 63.1045 0 62C0 60.8955 0.895508 60 2 60C3.10449 60 4 60.8955 4 62Z" fill="white" fill-opacity="0.2" style="mix-blend-mode:screen"/>
<path d="M24 62C24 63.1045 23.1045 64 22 64C20.8955 64 20 63.1045 20 62C20 60.8955 20.8955 60 22 60C23.1045 60 24 60.8955 24 62Z" fill="white" fill-opacity="0.2" style="mix-blend-mode:screen"/>
<path d="M42 64C43.1045 64 44 63.1045 44 62C44 60.8955 43.1045 60 42 60C40.8955 60 40 60.8955 40 62C40 63.1045 40.8955 64 42 64Z" fill="white" fill-opacity="0.2" style="mix-blend-mode:screen"/>
<path d="M64 62C64 63.1045 63.1045 64 62 64C60.8955 64 60 63.1045 60 62C60 60.8955 60.8955 60 62 60C63.1045 60 64 60.8955 64 62Z" fill="white" fill-opacity="0.2" style="mix-blend-mode:screen"/>
<path d="M82 64C83.1045 64 84 63.1045 84 62C84 60.8955 83.1045 60 82 60C80.8955 60 80 60.8955 80 62C80 63.1045 80.8955 64 82 64Z" fill="white" fill-opacity="0.2" style="mix-blend-mode:screen"/>
<path d="M2 84C3.10449 84 4 83.1045 4 82C4 80.8955 3.10449 80 2 80C0.895508 80 0 80.8955 0 82C0 83.1045 0.895508 84 2 84Z" fill="white" fill-opacity="0.2" style="mix-blend-mode:screen"/>
<path d="M22 84C23.1045 84 24 83.1045 24 82C24 80.8955 23.1045 80 22 80C20.8955 80 20 80.8955 20 82C20 83.1045 20.8955 84 22 84Z" fill="white" fill-opacity="0.2" style="mix-blend-mode:screen"/>
<path d="M44 82C44 83.1045 43.1045 84 42 84C40.8955 84 40 83.1045 40 82C40 80.8955 40.8955 80 42 80C43.1045 80 44 80.8955 44 82Z" fill="white" fill-opacity="0.2" style="mix-blend-mode:screen"/>
<path d="M62 84C63.1045 84 64 83.1045 64 82C64 80.8955 63.1045 80 62 80C60.8955 80 60 80.8955 60 82C60 83.1045 60.8955 84 62 84Z" fill="white" fill-opacity="0.2" style="mix-blend-mode:screen"/>
<path d="M84 82C84 83.1045 83.1045 84 82 84C80.8955 84 80 83.1045 80 82C80 80.8955 80.8955 80 82 80C83.1045 80 84 80.8955 84 82Z" fill="white" fill-opacity="0.2" style="mix-blend-mode:screen"/>
</svg>
