<svg xmlns="http://www.w3.org/2000/svg" xmlns:xlink="http://www.w3.org/1999/xlink"><symbol fill="none" viewBox="0 0 24 24" id="icon-checkmark" xmlns="http://www.w3.org/2000/svg"><path d="M5 12l5 5L20 7" stroke="var(--icon-stroke)" stroke-width="var(--icon-stroke-width)" stroke-linecap="round" stroke-linejoin="round"/></symbol><symbol viewBox="0 0 24 24" id="icon-chevron-right" xmlns="http://www.w3.org/2000/svg"><path stroke="var(--icon-stroke)" stroke-width="var(--icon-stroke-width)" fill="none" stroke-linecap="round" stroke-linejoin="round" d="M9 18l6-6-6-6"/></symbol><symbol fill="none" viewBox="0 0 24 24" id="icon-more" xmlns="http://www.w3.org/2000/svg"><path d="M5 13a1 1 0 100-2 1 1 0 000 2zM12 13a1 1 0 100-2 1 1 0 000 2zM19 13a1 1 0 100-2 1 1 0 000 2z" stroke="var(--icon-stroke)" stroke-width="var(--icon-stroke-width)" stroke-linecap="round" stroke-linejoin="round"/></symbol><symbol fill="none" viewBox="0 0 24 24" id="icon-search" xmlns="http://www.w3.org/2000/svg"><path d="M14.95 14.95a7 7 0 10-9.9-9.9 7 7 0 009.9 9.9zm0 0L21 21" stroke="var(--icon-stroke)" stroke-width="var(--icon-stroke-width)" stroke-linecap="round" stroke-linejoin="round"/></symbol><symbol viewBox="0 0 16 16" id="icon-sm-chevron-down" xmlns="http://www.w3.org/2000/svg"><path stroke="var(--icon-stroke)" stroke-width="var(--icon-stroke-width)" fill="none" stroke-linecap="round" stroke-linejoin="round" d="M4 6.5l4 4 4-4"/></symbol><symbol fill="none" viewBox="0 0 24 24" id="icon-success" xmlns="http://www.w3.org/2000/svg"><path d="M9 12l2 2 4-4m6 2a9 9 0 11-18 0 9 9 0 0118 0z" stroke="var(--icon-stroke)" stroke-width="var(--icon-stroke-width)" stroke-linecap="round" stroke-linejoin="round"/></symbol><symbol fill="none" viewBox="0 0 24 24" id="icon-user" xmlns="http://www.w3.org/2000/svg"><path d="M6 21v-2a4 4 0 014-4h4a4 4 0 014 4v2M16 7a4 4 0 11-8 0 4 4 0 018 0z" stroke="var(--icon-stroke)" stroke-width="var(--icon-stroke-width)" stroke-linecap="round" stroke-linejoin="round"/></symbol><symbol fill="none" viewBox="0 0 24 24" id="icon-warning" xmlns="http://www.w3.org/2000/svg"><path d="M21 12a9 9 0 11-18 0 9 9 0 0118 0z" fill="var(--icon-fill)"/><path d="M12 13V7m0 10v-2m9-3a9 9 0 11-18 0 9 9 0 0118 0z" stroke="var(--icon-stroke)" stroke-width="var(--icon-stroke-width)"/></symbol><symbol fill="none" viewBox="0 0 24 24" id="icon-x-mark" xmlns="http://www.w3.org/2000/svg"><path stroke="var(--icon-stroke)" stroke-width="var(--icon-stroke-width)" d="M18 18L6 6m0 12L18 6"/></symbol></svg>