<svg width="32" height="32" viewBox="0 0 32 32" fill="none" xmlns="http://www.w3.org/2000/svg">
<g clip-path="url(#clip0_777_1622)">
<rect x="-8" y="-12" width="48" height="48" fill="#1F2226"/>
<rect x="-6" y="-10" width="44" height="44" fill="white"/>
<path fill-rule="evenodd" clip-rule="evenodd" d="M2 30H30V32H2V30V30ZM16 26C12.946 26 10.218 23.666 8.38403 20H10.598C11.022 20.734 11.5 21.354 12 21.906V0L14 -2V23.456C14.642 23.774 15.304 24 16 24C16.696 24 17.358 23.774 18 23.456V-2L20 0V21.906C20.5 21.354 20.978 20.734 21.402 20H23.616C21.782 23.666 19.054 26 16 26V26Z" fill="#1F2226"/>
<path fill-rule="evenodd" clip-rule="evenodd" d="M2.16411 1.16869C-0.954227 0.151219 -3.15626 -0.0431391 -7.46214 1.11062C-7.52271 1.08528 -7.95063 -0.797349 -7.98173 -0.828504C-2.18578 -2.38152 -0.00793779 -1.81523 2.42286 -1.37973C4.60104 -0.98949 6.98232 -0.70428 12.352 -2.14307L13.3891 1.72742C10.9534 2.38006 5.28244 2.18617 2.16411 1.16869Z" fill="#1F2226"/>
<path fill-rule="evenodd" clip-rule="evenodd" d="M29.2251 1.16869C32.3434 0.151219 34.5454 -0.0431391 38.8513 1.11062C38.9119 1.08528 39.3398 -0.797349 39.3709 -0.828504C33.5749 -2.38152 31.3971 -1.81523 28.9663 -1.37973C26.7881 -0.98949 24.4068 -0.70428 19.0372 -2.14307L18.0001 1.72742C20.4358 2.38006 26.1067 2.18617 29.2251 1.16869Z" fill="#1F2226"/>
<path fill-rule="evenodd" clip-rule="evenodd" d="M29 6C27.344 6 26 4.656 26 3C26 1.344 27.344 0 29 0C30.656 0 32 1.344 32 3C32 4.656 30.656 6 29 6V6ZM3 6C1.344 6 0 4.656 0 3C0 1.344 1.344 0 3 0C4.656 0 6 1.344 6 3C6 4.656 4.656 6 3 6V6Z" fill="#1F2226"/>
<path fill-rule="evenodd" clip-rule="evenodd" d="M30 16C24.478 16 20 11.522 20 6C20 0.478 24.478 -4 30 -4C35.522 -4 40 0.478 40 6C40 11.522 35.522 16 30 16V16ZM30 -2C25.582 -2 22 1.582 22 6C22 10.418 25.582 14 30 14C34.418 14 38 10.418 38 6C38 1.582 34.418 -2 30 -2V-2ZM2 16C-3.522 16 -8 11.522 -8 6C-8 0.478 -3.522 -4 2 -4C7.522 -4 12 0.478 12 6C12 11.522 7.522 16 2 16V16ZM2 -2C-2.418 -2 -6 1.582 -6 6C-6 10.418 -2.418 14 2 14C6.418 14 10 10.418 10 6C10 1.582 6.418 -2 2 -2V-2Z" fill="#1F2226"/>
</g>
<defs>
<clipPath id="clip0_777_1622">
<rect width="32" height="32" fill="white"/>
</clipPath>
</defs>
</svg>
