<svg width="1002" height="6056" fill="none" xmlns="http://www.w3.org/2000/svg"><path d="M130.451 765H19.3572L221.626 190.455H350.114L552.663 765H441.57L288.114 308.281H283.626L130.451 765ZM134.098 539.727H437.081V623.327H134.098V539.727ZM752.916 190.455V765H648.836V291.729H645.469L511.091 377.575V282.191L653.885 190.455H752.916Z" fill="#2E2833"/><path d="M130.451 1785H19.3572L221.626 1210.45H350.114L552.663 1785H441.57L288.114 1328.28H283.626L130.451 1785ZM134.098 1559.73H437.081V1643.33H134.098V1559.73ZM546.228 1785V1709.82L745.692 1514.28C764.769 1495.02 780.666 1477.9 793.384 1462.94C806.102 1447.98 815.64 1433.48 821.999 1419.46C828.358 1405.43 831.537 1390.47 831.537 1374.57C831.537 1356.43 827.423 1340.91 819.193 1328C810.964 1314.91 799.649 1304.81 785.248 1297.7C770.847 1290.6 754.482 1287.04 736.154 1287.04C717.264 1287.04 700.712 1290.97 686.498 1298.82C672.284 1306.49 661.249 1317.43 653.394 1331.65C645.726 1345.86 641.892 1362.79 641.892 1382.43H542.862C542.862 1345.96 551.184 1314.25 567.83 1287.32C584.475 1260.39 607.386 1239.54 636.562 1224.76C665.925 1209.99 699.59 1202.6 737.556 1202.6C776.084 1202.6 809.936 1209.8 839.112 1224.2C868.288 1238.6 890.918 1258.33 907.002 1283.39C923.274 1308.46 931.409 1337.07 931.409 1369.24C931.409 1390.75 927.295 1411.88 919.066 1432.64C910.836 1453.4 896.342 1476.41 875.582 1501.65C855.009 1526.9 826.113 1557.48 788.895 1593.39L689.865 1694.11V1698.03H940.106V1785H546.228Z" fill="#2E2833"/><path d="M56.669 2805V2230.45H276.612C318.132 2230.45 352.639 2237 380.131 2250.09C407.811 2263 428.478 2280.67 442.131 2303.11C455.971 2325.56 462.891 2350.99 462.891 2379.42C462.891 2402.8 458.402 2422.81 449.425 2439.46C440.447 2455.91 428.384 2469.29 413.235 2479.57C398.086 2489.86 381.16 2497.25 362.457 2501.74V2507.35C382.843 2508.47 402.388 2514.73 421.09 2526.14C439.98 2537.37 455.41 2553.26 467.379 2573.84C479.349 2594.41 485.334 2619.28 485.334 2648.46C485.334 2678.2 478.133 2704.94 463.732 2728.69C449.331 2752.26 427.636 2770.87 398.647 2784.52C369.658 2798.17 333.188 2805 289.237 2805H56.669ZM160.749 2718.03H272.685C310.464 2718.03 337.676 2710.83 354.322 2696.43C371.154 2681.84 379.57 2663.14 379.57 2640.32C379.57 2623.3 375.362 2607.97 366.946 2594.31C358.53 2580.47 346.56 2569.63 331.037 2561.77C315.514 2553.73 296.998 2549.71 275.49 2549.71H160.749V2718.03ZM160.749 2474.8H263.707C281.662 2474.8 297.84 2471.53 312.241 2464.99C326.642 2458.25 337.957 2448.81 346.186 2436.65C354.602 2424.31 358.81 2409.72 358.81 2392.89C358.81 2370.63 350.955 2352.3 335.245 2337.9C319.722 2323.5 296.624 2316.3 265.952 2316.3H160.749V2474.8ZM727.457 2230.45V2805H623.377V2331.73H620.01L485.632 2417.57V2322.19L628.426 2230.45H727.457Z" fill="#2E2833"/><path d="M56.669 3825V3250.45H276.612C318.132 3250.45 352.639 3257 380.131 3270.09C407.811 3283 428.478 3300.67 442.131 3323.11C455.971 3345.56 462.891 3370.99 462.891 3399.42C462.891 3422.8 458.402 3442.81 449.425 3459.46C440.447 3475.91 428.384 3489.29 413.235 3499.57C398.086 3509.86 381.16 3517.25 362.457 3521.74V3527.35C382.843 3528.47 402.388 3534.73 421.09 3546.14C439.98 3557.37 455.41 3573.26 467.379 3593.84C479.349 3614.41 485.334 3639.28 485.334 3668.46C485.334 3698.2 478.133 3724.94 463.732 3748.69C449.331 3772.26 427.636 3790.87 398.647 3804.52C369.658 3818.17 333.188 3825 289.237 3825H56.669ZM160.749 3738.03H272.685C310.464 3738.03 337.676 3730.83 354.322 3716.43C371.154 3701.84 379.57 3683.14 379.57 3660.32C379.57 3643.3 375.362 3627.97 366.946 3614.31C358.53 3600.47 346.56 3589.63 331.037 3581.77C315.514 3573.73 296.998 3569.71 275.49 3569.71H160.749V3738.03ZM160.749 3494.8H263.707C281.662 3494.8 297.84 3491.53 312.241 3484.99C326.642 3478.25 337.957 3468.81 346.186 3456.65C354.602 3444.31 358.81 3429.72 358.81 3412.89C358.81 3390.63 350.955 3372.3 335.245 3357.9C319.722 3343.5 296.624 3336.3 265.952 3336.3H160.749V3494.8ZM493.767 3825V3749.82L693.231 3554.28C712.308 3535.02 728.205 3517.9 740.923 3502.94C753.641 3487.98 763.179 3473.48 769.538 3459.46C775.897 3445.43 779.076 3430.47 779.076 3414.57C779.076 3396.43 774.962 3380.91 766.732 3368C758.503 3354.91 747.188 3344.81 732.787 3337.7C718.386 3330.6 702.021 3327.04 683.693 3327.04C664.803 3327.04 648.251 3330.97 634.037 3338.82C619.823 3346.49 608.789 3357.43 600.933 3371.65C593.265 3385.86 589.431 3402.79 589.431 3422.43H490.401C490.401 3385.96 498.723 3354.25 515.369 3327.32C532.014 3300.39 554.925 3279.54 584.101 3264.76C613.464 3249.99 647.129 3242.6 685.095 3242.6C723.623 3242.6 757.475 3249.8 786.651 3264.2C815.827 3278.6 838.457 3298.33 854.541 3323.39C870.813 3348.46 878.948 3377.07 878.948 3409.24C878.948 3430.75 874.834 3451.88 866.605 3472.64C858.375 3493.4 843.881 3516.41 823.121 3541.65C802.548 3566.9 773.652 3597.48 736.434 3633.39L637.404 3734.11V3738.03H887.645V3825H493.767Z" fill="#2E2833"/><path d="M548.455 4464.31H443.533C440.541 4447.1 435.024 4431.86 426.982 4418.58C418.939 4405.11 408.933 4393.7 396.964 4384.35C384.994 4375 371.341 4367.99 356.005 4363.31C340.856 4358.45 324.491 4356.02 306.911 4356.02C275.677 4356.02 247.997 4363.87 223.871 4379.58C199.744 4395.11 180.855 4417.92 167.202 4448.04C153.549 4477.96 146.722 4514.52 146.722 4557.73C146.722 4601.68 153.549 4638.71 167.202 4668.82C181.042 4698.75 199.931 4721.38 223.871 4736.71C247.997 4751.86 275.584 4759.44 306.63 4759.44C323.836 4759.44 339.921 4757.19 354.883 4752.7C370.032 4748.03 383.591 4741.2 395.561 4732.22C407.718 4723.25 417.911 4712.21 426.14 4699.12C434.556 4686.03 440.354 4671.07 443.533 4654.23L548.455 4654.79C544.528 4682.1 536.018 4707.72 522.926 4731.66C510.021 4755.6 493.095 4776.74 472.148 4795.06C451.201 4813.21 426.701 4827.42 398.647 4837.71C370.593 4847.81 339.453 4852.86 305.227 4852.86C254.73 4852.86 209.657 4841.17 170.007 4817.79C130.357 4794.41 99.1241 4760.65 76.3068 4716.51C53.4896 4672.37 42.081 4619.45 42.081 4557.73C42.081 4495.82 53.5831 4442.89 76.5874 4398.94C99.5916 4354.8 130.919 4321.05 170.568 4297.67C210.218 4274.29 255.104 4262.6 305.227 4262.6C337.209 4262.6 366.946 4267.09 394.439 4276.07C421.932 4285.04 446.432 4298.23 467.94 4315.62C489.448 4332.83 507.122 4353.96 520.962 4379.02C534.989 4403.9 544.154 4432.33 548.455 4464.31ZM795.347 4270.45V4845H691.267V4371.73H687.901L553.522 4457.57V4362.19L696.317 4270.45H795.347Z" fill="#2E2833"/><path d="M548.455 5484.31H443.533C440.541 5467.1 435.024 5451.86 426.982 5438.58C418.939 5425.11 408.933 5413.7 396.964 5404.35C384.994 5395 371.341 5387.99 356.005 5383.31C340.856 5378.45 324.491 5376.02 306.911 5376.02C275.677 5376.02 247.997 5383.87 223.871 5399.58C199.744 5415.11 180.855 5437.92 167.202 5468.04C153.549 5497.96 146.722 5534.52 146.722 5577.73C146.722 5621.68 153.549 5658.71 167.202 5688.82C181.042 5718.75 199.931 5741.38 223.871 5756.71C247.997 5771.86 275.584 5779.44 306.63 5779.44C323.836 5779.44 339.921 5777.19 354.883 5772.7C370.032 5768.03 383.591 5761.2 395.561 5752.22C407.718 5743.25 417.911 5732.21 426.14 5719.12C434.556 5706.03 440.354 5691.07 443.533 5674.23L548.455 5674.79C544.528 5702.1 536.018 5727.72 522.926 5751.66C510.021 5775.6 493.095 5796.74 472.148 5815.06C451.201 5833.21 426.701 5847.42 398.647 5857.71C370.593 5867.81 339.453 5872.86 305.227 5872.86C254.73 5872.86 209.657 5861.17 170.007 5837.79C130.357 5814.41 99.1241 5780.65 76.3068 5736.51C53.4896 5692.37 42.081 5639.45 42.081 5577.73C42.081 5515.82 53.5831 5462.89 76.5874 5418.94C99.5916 5374.8 130.919 5341.05 170.568 5317.67C210.218 5294.29 255.104 5282.6 305.227 5282.6C337.209 5282.6 366.946 5287.09 394.439 5296.07C421.932 5305.04 446.432 5318.23 467.94 5335.62C489.448 5352.83 507.122 5373.96 520.962 5399.02C534.989 5423.9 544.154 5452.33 548.455 5484.31ZM561.658 5865V5789.82L761.122 5594.28C780.198 5575.02 796.096 5557.9 808.813 5542.94C821.531 5527.98 831.07 5513.48 837.428 5499.46C843.787 5485.43 846.967 5470.47 846.967 5454.57C846.967 5436.43 842.852 5420.91 834.623 5408C826.394 5394.91 815.079 5384.81 800.678 5377.7C786.277 5370.6 769.912 5367.04 751.583 5367.04C732.694 5367.04 716.142 5370.97 701.928 5378.82C687.714 5386.49 676.679 5397.43 668.824 5411.65C661.156 5425.86 657.322 5442.79 657.322 5462.43H558.291C558.291 5425.96 566.614 5394.25 583.259 5367.32C599.905 5340.39 622.816 5319.54 651.992 5304.76C681.355 5289.99 715.02 5282.6 752.986 5282.6C791.513 5282.6 825.365 5289.8 854.541 5304.2C883.718 5318.6 906.348 5338.33 922.432 5363.39C938.703 5388.46 946.839 5417.07 946.839 5449.24C946.839 5470.75 942.724 5491.88 934.495 5512.64C926.266 5533.4 911.772 5556.41 891.012 5581.65C870.439 5606.9 841.543 5637.48 804.325 5673.39L705.294 5774.11V5778.03H955.536V5865H561.658Z" fill="#2E2833"/></svg>