<svg width="48" height="48" fill="none" xmlns="http://www.w3.org/2000/svg"><g clip-path="url(#clip0_7627_5180)"><mask id="mask0_7627_5180" style="mask-type:alpha" maskUnits="userSpaceOnUse" x="0" y="0" width="48" height="48"><rect width="48" height="48" fill="#0063CC"/></mask><g mask="url(#mask0_7627_5180)"><rect width="48" height="48" fill="#004FA3"/><path d="M37.994 18.8966C38.585 19.2406 39.3109 19.2587 39.9184 18.9447C40.5259 18.6307 40.9308 18.028 40.992 17.3469L42.023 5.8669L40.031 5.688L40.0373 5.674H42V5C42 -4.94157 33.9416 -13 24 -13C14.0584 -13 6 -4.94157 6 5V5.707C6 5.79699 6.00594 5.88559 6.01746 5.97243L7.00754 17.3415C7.06696 18.0238 7.4714 18.6283 8.07944 18.9435C8.68748 19.2588 9.41455 19.241 10.0064 18.8963C12.8742 17.2264 13 14.1321 13 12V8.98244C15.8291 9.51668 18.8087 9.84967 21.8907 9.95434C21.9623 10.1251 22 10.3089 22 10.5C22 11.3284 21.3284 12 20.5 12C20.0841 12 19.7083 11.8306 19.4306 11.5464C18.8624 10.9647 17.9985 10.785 17.2454 11.0918C16.4924 11.3986 16 12.1308 16 12.944V13.71C16 14.3036 16.2637 14.8666 16.7198 15.2466C17.9986 16.312 19.6532 17 21.5 17C25.6426 17 29 13.6426 29 9.5C29 9.48208 28.9998 9.46438 28.9996 9.44692C29.0163 9.37379 29.029 9.29905 29.0375 9.2229C29.1792 7.95999 30.2321 7 31.5 7C32.7679 7 33.8208 7.95999 33.9625 9.2229C33.9732 9.31903 33.991 9.41424 34.0155 9.5078L35.0426 13.4206C35.1699 15.308 35.6938 17.5579 37.994 18.8966ZM8 7.707C8.01838 7.707 8.0004 7.70754 7.96304 7.70667C7.97533 7.70689 7.98765 7.707 8 7.707Z" fill="#FCFCFD" stroke="#004FA3" stroke-width="4" stroke-linejoin="round"/><path d="M4.85714 53.542L4.57143 52.626L5.04875 52.4771L4.76303 51.5611L4.28571 51.71L4 50.794L4.47732 50.6451L4.19161 49.7291L3.71429 49.878L3.42857 48.962L3.90589 48.8131L3.62018 47.8971L3.14286 48.046L2.85714 47.13L3.33446 46.9811L3.04875 46.0651L2.57143 46.214L2.28571 45.298L2.76303 45.1491L2.47732 44.2331L2 44.382L1.71429 43.466L2.19161 43.3171L1.90589 42.4011L1.42857 42.55L1.14286 41.634L1.27056 41.5942L1.27161 41.5958L1.27744 41.592L1.62018 41.4851L1.59037 41.3896L1.67161 41.337L1.48309 41.0456L1.47732 41.0271L1.47216 41.0287L1.4 40.9172L2.2 40.3996L2.47161 40.8194L3.27161 40.3018L3 39.882L3.8 39.3644L4.07161 39.7842L4.87161 39.2666L4.6 38.8468L5.4 38.3292L5.67161 38.749L6.47161 38.2314L6.2 37.8116L7 37.294L7.27161 37.7138L8.07161 37.1962L7.8 36.7764L8.6 36.2588L8.87161 36.6786L9.27161 36.4198L9.5 36.272V36V35.5H9V34.5H9.5V33.5H9V32.5H9.5V31.5H9V30.5H9.5V29.5H9V28.5H9.5V27.5H9V26.5H9.5V25.5H9V24.5H9.5V23.5H9V22.5L9.5 22.5V22H10.5V22.5H11.5V22H12.5V22.5H13.5V22H14.5V22.5H15.5V22H16.5V22.5H17.5V22H18.5V22.5H19.5V22H20.5V22.5H21.5V22H22.5V22.5H23.5V22H24.5V22.5H25.5V22H26.5V22.5H27.5V22H28.5V22.5H29.5V22H30.5V22.5H31.5V22H32.5V22.5H33.5V22H34.5V22.5H35.5V22H36.5V22.5H37.5V22H38.5V22.5H39V23.5H38.5V24.5H39V25.5H38.5V26.5H39V27.5H38.5V28.5H39V29.5H38.5V30.5H39V31.5H38.5V32.5H39V33.5H38.5V34.5H39V35.5H38.5V36V36.272L38.7284 36.4198L39.1284 36.6786L39.4 36.2588L40.2 36.7764L39.9284 37.1962L40.7284 37.7138L41 37.294L41.8 37.8116L41.5284 38.2314L42.3284 38.749L42.6 38.3292L43.4 38.8468L43.1284 39.2666L43.9284 39.7842L44.2 39.3644L45 39.882L44.7284 40.3018L45.5284 40.8194L45.8 40.3996L46.6 40.9172L46.5278 41.0287L46.5227 41.0271L46.5169 41.0456L46.3284 41.337L46.4096 41.3896L46.3798 41.4851L46.7226 41.592L46.7284 41.5958L46.7294 41.5942L46.8571 41.634L46.5714 42.55L46.0941 42.4011L45.8084 43.3171L46.2857 43.466L46 44.382L45.5227 44.2331L45.237 45.1491L45.7143 45.298L45.4286 46.214L44.9513 46.0651L44.6655 46.9811L45.1429 47.13L44.8571 48.046L44.3798 47.8971L44.0941 48.8131L44.5714 48.962L44.2857 49.878L43.8084 49.7291L43.5227 50.6451L44 50.794L43.7143 51.71L43.237 51.5611L42.9513 52.4771L43.4286 52.626L43.1429 53.542L42.6655 53.3931L42.6322 53.5H42.5V54H41.5V53.5H40.5V54H39.5V53.5H38.5V54H37.5V53.5H36.5V54H35.5V53.5H34.5V54H33.5V53.5H32.5V54H31.5V53.5H30.5V54H29.5V53.5H28.5V54H27.5V53.5H26.5V54H25.5V53.5H24.5V54H23.5V53.5H22.5V54H21.5V53.5H20.5V54H19.5V53.5H18.5V54H17.5V53.5H16.5V54H15.5V53.5H14.5V54H13.5V53.5H12.5V54H11.5V53.5H10.5V54H9.5V53.5H8.5V54H7.5V53.5H6.5V54H5.5V53.5H5.3678L5.33446 53.3931L4.85714 53.542Z" fill="#FCFCFD" stroke="#004FA3" stroke-dasharray="1 1"/><path d="M7.70643 21.3125L7.70641 21.3123L6.63943 10.8196C6.63943 10.8195 6.63943 10.8195 6.63943 10.8195C6.56901 10.123 7.11346 9.5 7.96997 9.5H40.261C41.1211 9.5 41.6781 10.1274 41.6169 10.8263L40.6939 21.319C40.6939 21.319 40.6939 21.319 40.6939 21.3191C40.6412 21.9169 40.0068 22.5 39.177 22.5H9.24597C8.4151 22.5 7.76742 21.9146 7.70643 21.3125Z" fill="#FCFCFD" stroke="#004FA3" stroke-linejoin="round"/><path d="M22.4487 -9.92603C22.7896 -9.95873 23.1339 -9.98077 23.4812 -9.99178L23.4971 -9.49204C23.664 -9.49733 23.8317 -9.5 24 -9.5C24.1683 -9.5 24.336 -9.49733 24.5029 -9.49204L24.5187 -9.99178C24.8661 -9.98077 25.2104 -9.95873 25.5513 -9.92603L25.5036 -9.42831C25.8391 -9.39614 26.1711 -9.35332 26.4993 -9.30024L26.5792 -9.79382C26.922 -9.73837 27.2608 -9.67206 27.5952 -9.59528L27.4833 -9.10796C27.8109 -9.03274 28.1341 -8.94716 28.4525 -8.85161L28.5962 -9.3305C28.9286 -9.23074 29.256 -9.12045 29.5778 -9.00005L29.4026 -8.53175C29.7168 -8.41419 30.0256 -8.28668 30.3285 -8.14965L30.5346 -8.6052C30.8506 -8.46224 31.1604 -8.30924 31.4635 -8.14663L31.2271 -7.70602C31.5224 -7.54763 31.8111 -7.37984 32.0928 -7.2031L32.3585 -7.62663C32.6521 -7.44245 32.9382 -7.24884 33.2165 -7.04628L32.9223 -6.64202C33.1928 -6.44509 33.4557 -6.23943 33.7103 -6.02552L34.0319 -6.40835C34.297 -6.18565 34.5535 -5.95426 34.8009 -5.71466L34.4531 -5.35546C34.6931 -5.12306 34.9242 -4.88273 35.146 -4.63495L35.5186 -4.96835C35.7492 -4.71062 35.97 -4.44503 36.1806 -4.17208L35.7848 -3.86665C35.9884 -3.60273 36.182 -3.33175 36.3651 -3.05421L36.7825 -3.32953C36.9726 -3.04125 37.1519 -2.74604 37.3198 -2.44442L36.8829 -2.20126C37.0446 -1.91078 37.1952 -1.61421 37.3343 -1.31202L37.7885 -1.52108C37.9326 -1.20797 38.0648 -0.888969 38.1846 -0.564573L37.7156 -0.391337C37.8304 -0.0804529 37.9334 0.235524 38.024 0.556129L38.5051 0.420169C38.5986 0.751014 38.6795 1.08665 38.7471 1.42661L38.2568 1.52423C38.3213 1.84825 38.3733 2.17636 38.4125 2.50811L38.909 2.4495C38.9492 2.78995 38.9763 3.13409 38.9899 3.48145L38.4903 3.50094C38.4967 3.66653 38.5 3.8329 38.5 4V4.5H39V5.5H38.5V6.5H39V7.5H38.5V8.5H39V9.5H38.5V10.5H39V11.5H38.5V12.5H39V13.5H38.5V14.5H39V15.5H38.5V16.5H39V17.5H38.5V18.5H39V19.5H38.5V20.5H39V21.5H38.5V22.5H39V23.5H38.5V24.5H39V25.5H38.5V26C38.5 26.1562 38.4972 26.3136 38.4915 26.4722L38.9912 26.49C38.9796 26.8139 38.9567 27.1418 38.9229 27.4725L38.4255 27.4217C38.3937 27.7334 38.3517 28.0483 38.3 28.3655L38.7935 28.446C38.7413 28.7662 38.6794 29.0884 38.6083 29.4116L38.1199 29.3041C38.0519 29.6131 37.9751 29.9234 37.8897 30.2343L38.3719 30.3667C38.2856 30.6807 38.191 30.9951 38.0882 31.3091L37.613 31.1535C37.5141 31.4556 37.4074 31.7575 37.2932 32.0584L37.7607 32.2358C37.645 32.5408 37.5218 32.8448 37.3914 33.147L36.9323 32.949C36.8058 33.2422 36.6723 33.5339 36.5321 33.8234L36.982 34.0413C36.8394 34.3357 36.69 34.6279 36.5341 34.917L36.094 34.6798C35.942 34.9617 35.7837 35.2407 35.6193 35.5163L36.0487 35.7725C35.8808 36.054 35.7066 36.332 35.5265 36.6058L35.1088 36.331C34.9325 36.599 34.7504 36.8629 34.5628 37.1219L34.9677 37.4152C34.775 37.6813 34.5766 37.9425 34.3726 38.1983L33.9817 37.8866C33.7816 38.1375 33.5762 38.3828 33.3658 38.622L33.7412 38.9523C33.5239 39.1993 33.3012 39.4401 33.0734 39.6739L32.7153 39.325C32.4917 39.5546 32.2632 39.7771 32.0301 39.9919L32.369 40.3596C32.1266 40.583 31.8791 40.7986 31.6269 41.0056L31.3097 40.6191C31.0625 40.822 30.8109 41.0161 30.5552 41.2009L30.848 41.6062C30.5807 41.7992 30.3089 41.9826 30.0326 42.1555L29.7673 41.7317C29.4978 41.9004 29.2245 42.0585 28.9475 42.2054L29.1818 42.6471C28.8906 42.8016 28.5952 42.9443 28.2958 43.0745L28.0964 42.616C27.8069 42.7419 27.5141 42.8555 27.2182 42.9559L27.3789 43.4294C27.0679 43.5349 26.7532 43.6268 26.4352 43.7042L26.3169 43.2184C26.0133 43.2923 25.7068 43.3523 25.3978 43.3976L25.4703 43.8923C25.1473 43.9396 24.8212 43.9718 24.4924 43.9879L24.4679 43.4885C24.3126 43.4961 24.1566 43.5 24 43.5C23.8434 43.5 23.6875 43.4961 23.5321 43.4885L23.5076 43.9879C23.1788 43.9718 22.8528 43.9396 22.5297 43.8923L22.6022 43.3976C22.2932 43.3523 21.9867 43.2923 21.6831 43.2184L21.5648 43.7042C21.2468 43.6268 20.9321 43.5349 20.6211 43.4294L20.7818 42.9559C20.4859 42.8555 20.1931 42.7419 19.9036 42.616L19.7042 43.0745C19.4048 42.9443 19.1094 42.8016 18.8182 42.6471L19.0525 42.2054C18.7755 42.0585 18.5022 41.9004 18.2327 41.7317L17.9674 42.1555C17.6911 41.9826 17.4193 41.7992 17.152 41.6062L17.4448 41.2009C17.1891 41.0161 16.9375 40.822 16.6903 40.6191L16.3731 41.0056C16.1209 40.7986 15.8734 40.583 15.631 40.3596L15.9699 39.9919C15.7368 39.7771 15.5083 39.5546 15.2847 39.325L14.9266 39.6739C14.6988 39.4401 14.4761 39.1993 14.2588 38.9523L14.6342 38.622C14.4238 38.3828 14.2184 38.1375 14.0183 37.8866L13.6274 38.1983C13.4234 37.9425 13.225 37.6813 13.0323 37.4152L13.4372 37.1219C13.2496 36.8629 13.0675 36.599 12.8912 36.331L12.4735 36.6058C12.2934 36.332 12.1192 36.054 11.9513 35.7725L12.3807 35.5163C12.2163 35.2407 12.058 34.9617 11.906 34.6798L11.4659 34.917C11.31 34.6279 11.1606 34.3357 11.018 34.0413L11.4679 33.8234C11.3277 33.5339 11.1942 33.2422 11.0677 32.949L10.6086 33.147C10.4782 32.8448 10.355 32.5408 10.2393 32.2358L10.7068 32.0584C10.5926 31.7575 10.4859 31.4556 10.387 31.1535L9.91185 31.3091C9.80905 30.9951 9.71438 30.6807 9.62814 30.3667L10.1103 30.2343C10.0249 29.9234 9.94808 29.6131 9.88005 29.3041L9.39175 29.4116C9.32058 29.0884 9.25873 28.7662 9.20651 28.446L9.69999 28.3655C9.64825 28.0483 9.60632 27.7334 9.57447 27.4217L9.07706 27.4725C9.04325 27.1418 9.02039 26.8139 9.00883 26.49L9.50851 26.4722C9.50285 26.3136 9.5 26.1562 9.5 26V25.5H9V24.5H9.5V23.5H9V22.5H9.5V21.5H9V20.5H9.5V19.5H9V18.5H9.5V17.5H9V16.5H9.5V15.5H9V14.5H9.5V13.5H9V12.5H9.5V11.5H9V10.5H9.5V9.5H9V8.5H9.5V7.5H9V6.5H9.5V5.5H9V4.5H9.5V4C9.5 3.8329 9.50326 3.66653 9.50972 3.50095L9.0101 3.48146C9.02365 3.13409 9.05076 2.78996 9.09095 2.4495L9.58751 2.50812C9.62667 2.17636 9.67874 1.84825 9.74325 1.52423L9.25287 1.42661C9.32054 1.08666 9.40138 0.751018 9.49487 0.420173L9.97603 0.556132C10.0666 0.235528 10.1696 -0.0804491 10.2844 -0.391334L9.81537 -0.564569C9.93518 -0.888966 10.0674 -1.20796 10.2115 -1.52107L10.6657 -1.31202C10.8048 -1.6142 10.9554 -1.91078 11.1171 -2.20126L10.6802 -2.44441C10.8481 -2.74604 11.0274 -3.04125 11.2175 -3.32953L11.6349 -3.05421C11.818 -3.33175 12.0116 -3.60273 12.2152 -3.86665L11.8194 -4.17208C12.03 -4.44503 12.2508 -4.71062 12.4814 -4.96835L12.854 -4.63494C13.0758 -4.88273 13.3069 -5.12306 13.5469 -5.35546L13.1991 -5.71466C13.4465 -5.95426 13.703 -6.18565 13.9681 -6.40835L14.2897 -6.02552C14.5443 -6.23943 14.8072 -6.44509 15.0777 -6.64202L14.7835 -7.04628C15.0618 -7.24884 15.3479 -7.44245 15.6415 -7.62663L15.9072 -7.2031C16.1889 -7.37984 16.4776 -7.54763 16.7729 -7.70602L16.5365 -8.14663C16.8396 -8.30924 17.1494 -8.46224 17.4654 -8.6052L17.6715 -8.14965C17.9744 -8.28668 18.2831 -8.41419 18.5974 -8.53175L18.4222 -9.00005C18.744 -9.12045 19.0714 -9.23074 19.4038 -9.3305L19.5475 -8.85161C19.8659 -8.94716 20.1891 -9.03274 20.5167 -9.10796L20.4048 -9.59528C20.7392 -9.67206 21.078 -9.73837 21.4208 -9.79382L21.5007 -9.30024C21.8289 -9.35332 22.1609 -9.39614 22.4964 -9.42831L22.4487 -9.92603Z" fill="#FCFCFD" stroke="#004FA3" stroke-dasharray="1 1"/><path fill-rule="evenodd" clip-rule="evenodd" d="M24 48C25.551 48 26.938 46.662 27.855 45H28.969C27.89 47.176 26.067 49 24 49C21.933 49 20.11 47.176 19.031 45H20.145C21.062 46.662 22.449 48 24 48V48Z" fill="#004FA3"/><path fill-rule="evenodd" clip-rule="evenodd" d="M10 28H9V36H10V28ZM38 28V36H39V28H38Z" fill="#004FA3"/><path d="M27.5 37.5H20.5" stroke="#004FA3" stroke-linecap="square"/><path d="M30.5 34.5H17.5" stroke="#004FA3" stroke-linecap="square"/><path fill-rule="evenodd" clip-rule="evenodd" d="M28 29C27.061 30.8289 25.6181 32 24 32C22.3819 32 20.939 30.8289 20 29H21.1313C21.8706 30.2372 22.8831 31 24 31C25.1169 31 26.1294 30.2372 26.8687 29H28V29Z" fill="#004FA3"/><path fill-rule="evenodd" clip-rule="evenodd" d="M23 18L22 19V31H23V18ZM25 18L26 19V31H25V18Z" fill="#004FA3"/><path fill-rule="evenodd" clip-rule="evenodd" d="M17.0821 19.5843C15.5229 19.0755 14.4219 18.9784 12.2689 19.5552C12.2386 19.5426 12.0247 18.6013 12.0091 18.5857C14.9071 17.8092 15.996 18.0923 17.2114 18.3101C18.3005 18.5052 19.4912 18.6478 22.176 17.9284L22.6945 19.8636C21.4767 20.19 18.6412 20.093 17.0821 19.5843Z" fill="#004FA3"/><path fill-rule="evenodd" clip-rule="evenodd" d="M30.6125 19.5843C32.1716 19.0755 33.2726 18.9784 35.4256 19.5552C35.4559 19.5426 35.6698 18.6013 35.6854 18.5857C32.7874 17.8092 31.6985 18.0923 30.4831 18.3101C29.394 18.5052 28.2034 18.6478 25.5185 17.9284L25 19.8636C26.2178 20.19 29.0533 20.093 30.6125 19.5843Z" fill="#004FA3"/><path fill-rule="evenodd" clip-rule="evenodd" d="M30.5 22C29.672 22 29 21.328 29 20.5C29 19.672 29.672 19 30.5 19C31.328 19 32 19.672 32 20.5C32 21.328 31.328 22 30.5 22V22ZM17.5 22C16.672 22 16 21.328 16 20.5C16 19.672 16.672 19 17.5 19C18.328 19 19 19.672 19 20.5C19 21.328 18.328 22 17.5 22V22Z" fill="#004FA3"/><path fill-rule="evenodd" clip-rule="evenodd" d="M31 27C28.239 27 26 24.761 26 22C26 19.239 28.239 17 31 17C33.761 17 36 19.239 36 22C36 24.761 33.761 27 31 27V27ZM31 18C28.791 18 27 19.791 27 22C27 24.209 28.791 26 31 26C33.209 26 35 24.209 35 22C35 19.791 33.209 18 31 18V18ZM17 27C14.239 27 12 24.761 12 22C12 19.239 14.239 17 17 17C19.761 17 22 19.239 22 22C22 24.761 19.761 27 17 27V27ZM17 18C14.791 18 13 19.791 13 22C13 24.209 14.791 26 17 26C19.209 26 21 24.209 21 22C21 19.791 19.209 18 17 18V18Z" fill="#004FA3"/><path fill-rule="evenodd" clip-rule="evenodd" d="M10.9744 14.3419L12.9744 20.3419L13.1325 20.8162L12.1838 21.1325L12.0257 20.6581L10.0257 14.6581L9.86755 14.1838L10.8162 13.8676L10.9744 14.3419ZM37.0257 14.3419L35.0257 20.3419L34.8676 20.8162L35.8162 21.1325L35.9744 20.6581L37.9744 14.6581L38.1325 14.1838L37.1838 13.8676L37.0257 14.3419Z" fill="#004FA3"/><mask id="path-20-inside-1_7627_5180" fill="white"><path fill-rule="evenodd" clip-rule="evenodd" d="M40.031 5.688L39 17.168C37.457 16.27 37.089 14.719 37.017 12.885L37 13L35.95 9C35.698 6.753 33.814 5 31.5 5C29.186 5 27.302 6.753 27.05 9H26.95C26.965 9.167 27 9.329 27 9.5C27 12.538 24.538 15 21.5 15C20.163 15 18.953 14.504 18 13.71V12.944C18.635 13.594 19.519 14 20.5 14C22.433 14 24 12.433 24 10.5C24 9.501 23.571 8.614 22.898 7.98C18.676 7.903 14.651 7.384 10.953 6.501C10.97 6.667 11 6.829 11 7V12C11 14.215 10.786 16.128 9 17.168L8.002 5.708C8.001 5.707 8.001 5.707 8 5.707V5C8 -3.837 15.163 -11 24 -11C32.837 -11 40 -3.837 40 5V5.674L40.031 5.688V5.688Z"/></mask><path fill-rule="evenodd" clip-rule="evenodd" d="M40.031 5.688L39 17.168C37.457 16.27 37.089 14.719 37.017 12.885L37 13L35.95 9C35.698 6.753 33.814 5 31.5 5C29.186 5 27.302 6.753 27.05 9H26.95C26.965 9.167 27 9.329 27 9.5C27 12.538 24.538 15 21.5 15C20.163 15 18.953 14.504 18 13.71V12.944C18.635 13.594 19.519 14 20.5 14C22.433 14 24 12.433 24 10.5C24 9.501 23.571 8.614 22.898 7.98C18.676 7.903 14.651 7.384 10.953 6.501C10.97 6.667 11 6.829 11 7V12C11 14.215 10.786 16.128 9 17.168L8.002 5.708C8.001 5.707 8.001 5.707 8 5.707V5C8 -3.837 15.163 -11 24 -11C32.837 -11 40 -3.837 40 5V5.674L40.031 5.688V5.688Z" fill="#FCFCFD"/><path d="M39 17.168L38.7485 17.6001L39.4277 17.9954L39.498 17.2127L39 17.168ZM37.017 12.885L37.5166 12.8654L36.5224 12.8119L37.017 12.885ZM37 13L36.5164 13.1269L37.4946 13.0731L37 13ZM35.95 9L35.4531 9.05573L35.4572 9.09182L35.4664 9.12695L35.95 9ZM27.05 9V9.5H27.4971L27.5469 9.05573L27.05 9ZM26.95 9V8.5H26.4031L26.452 9.04473L26.95 9ZM18 13.71H17.5V13.9442L17.6799 14.0941L18 13.71ZM18 12.944L18.3577 12.5946L17.5 11.7167V12.944H18ZM22.898 7.98L23.2409 7.61606L23.1002 7.4836L22.9071 7.48008L22.898 7.98ZM10.953 6.501L11.0691 6.01467L10.3838 5.85104L10.4556 6.55194L10.953 6.501ZM9 17.168L8.50189 17.2114L8.57029 17.9968L9.2516 17.6001L9 17.168ZM8.002 5.708L8.50011 5.66462L8.48432 5.48321L8.35555 5.35445L8.002 5.708ZM8 5.707H7.5V6.207H8V5.707ZM40 5.674H39.5V5.99681L39.7942 6.12968L40 5.674ZM39.533 5.64328L39.4471 6.59994L40.4431 6.68939L40.529 5.73272L39.533 5.64328ZM39.3612 7.55661L39.1893 9.46994L40.1853 9.55939L40.3572 7.64606L39.3612 7.55661ZM39.1034 10.4266L38.9316 12.3399L39.9276 12.4294L40.0994 10.5161L39.1034 10.4266ZM38.8457 13.2966L38.6738 15.2099L39.6698 15.2994L39.8417 13.3861L38.8457 13.2966ZM38.5879 16.1666L38.502 17.1233L39.498 17.2127L39.5839 16.2561L38.5879 16.1666ZM39.2515 16.7359C39.0311 16.6076 38.8412 16.4661 38.6768 16.3132L37.996 17.0456C38.2168 17.251 38.4668 17.4362 38.7485 17.6001L39.2515 16.7359ZM38.2237 15.7758C37.9709 15.3902 37.8008 14.9382 37.6899 14.4193L36.712 14.6284C36.8414 15.2336 37.0499 15.8093 37.3874 16.3241L38.2237 15.7758ZM37.5715 13.6559C37.5447 13.4023 37.5273 13.1387 37.5166 12.8654L36.5174 12.9046C36.5288 13.1946 36.5475 13.4808 36.5771 13.761L37.5715 13.6559ZM36.5224 12.8119L36.5167 12.8502L37.506 12.9965L37.5116 12.9581L36.5224 12.8119ZM36.511 12.8885L36.5054 12.9269L37.4946 13.0731L37.5003 13.0348L36.511 12.8885ZM37.4836 12.8731L37.1336 11.5397L36.1664 11.7936L36.5164 13.1269L37.4836 12.8731ZM36.7836 10.2064L36.4336 8.87305L35.4664 9.12695L35.8164 10.4603L36.7836 10.2064ZM36.4469 8.94427C36.401 8.5354 36.3064 8.14094 36.1689 7.76722L35.2304 8.11264C35.3405 8.41166 35.4163 8.72761 35.4531 9.05573L36.4469 8.94427ZM35.6171 6.69069C35.1634 6.01965 34.5516 5.46482 33.8331 5.08128L33.3622 5.96345C33.9354 6.26946 34.4251 6.71307 34.7887 7.25079L35.6171 6.69069ZM32.7018 4.64632C32.3167 4.55063 31.9142 4.5 31.5 4.5V5.5C31.8324 5.5 32.154 5.5406 32.4606 5.6168L32.7018 4.64632ZM31.5 4.5C31.0858 4.5 30.6833 4.55063 30.2982 4.64632L30.5394 5.6168C30.846 5.5406 31.1676 5.5 31.5 5.5V4.5ZM29.1669 5.08128C28.4484 5.46482 27.8366 6.01965 27.3829 6.69069L28.2113 7.25079C28.5749 6.71307 29.0646 6.26946 29.6378 5.96345L29.1669 5.08128ZM26.8311 7.76722C26.6936 8.14094 26.599 8.5354 26.5531 8.94427L27.5469 9.05573C27.5837 8.72761 27.6595 8.41166 27.7696 8.11264L26.8311 7.76722ZM27.05 8.5H27.0167V9.5H27.05V8.5ZM26.9833 8.5H26.95V9.5H26.9833V8.5ZM26.452 9.04473C26.4581 9.11282 26.4668 9.17803 26.4742 9.23309L27.4652 9.09977C27.4578 9.0443 27.4519 8.99891 27.448 8.95527L26.452 9.04473ZM26.4931 9.38391C26.4977 9.42811 26.5 9.46572 26.5 9.5H27.5C27.5 9.42114 27.4947 9.34757 27.4879 9.28156L26.4931 9.38391ZM26.5 9.5C26.5 9.7969 26.4742 10.0873 26.4248 10.3693L27.4098 10.5418C27.4691 10.2031 27.5 9.85497 27.5 9.5H26.5ZM26.2 11.2107C25.9987 11.7636 25.7025 12.2713 25.3307 12.7139L26.0964 13.3571C26.5421 12.8265 26.8978 12.2172 27.1396 11.5527L26.2 11.2107ZM24.7139 13.3307C24.2713 13.7025 23.7636 13.9987 23.2107 14.2L23.5527 15.1396C24.2172 14.8978 24.8265 14.5421 25.3571 14.0964L24.7139 13.3307ZM22.3693 14.4248C22.0873 14.4742 21.7969 14.5 21.5 14.5V15.5C21.855 15.5 22.2031 15.4691 22.5418 15.4098L22.3693 14.4248ZM21.5 14.5C21.1064 14.5 20.7255 14.4526 20.3607 14.3641L20.1249 15.3359C20.5657 15.4429 21.0258 15.5 21.5 15.5V14.5ZM19.2836 13.9635C18.9393 13.7876 18.6165 13.5729 18.3201 13.3259L17.6799 14.0941C18.0316 14.3871 18.4162 14.6434 18.8287 14.8541L19.2836 13.9635ZM18.5 13.71V13.4547H17.5V13.71H18.5ZM18.5 13.1993V12.944H17.5V13.1993H18.5ZM17.6423 13.2934C17.8888 13.5456 18.1682 13.7659 18.4741 13.9467L18.9831 13.0859C18.7536 12.9502 18.5433 12.7847 18.3577 12.5946L17.6423 13.2934ZM19.45 14.3599C19.7849 14.4513 20.137 14.5 20.5 14.5V13.5C20.2269 13.5 19.9633 13.4634 19.7133 13.3952L19.45 14.3599ZM20.5 14.5C20.8574 14.5 21.2045 14.453 21.5353 14.3646L21.2771 13.3985C21.0298 13.4646 20.7694 13.5 20.5 13.5V14.5ZM22.5007 13.9644C23.1075 13.6133 23.6133 13.1075 23.9644 12.5007L23.0988 11.9999C22.8353 12.4553 22.4553 12.8353 21.9999 13.0988L22.5007 13.9644ZM24.3646 11.5353C24.453 11.2045 24.5 10.8574 24.5 10.5H23.5C23.5 10.7694 23.4646 11.0298 23.3985 11.2771L24.3646 11.5353ZM24.5 10.5C24.5 10.1296 24.4484 9.7717 24.3522 9.43239L23.3901 9.70532C23.4615 9.95685 23.5 10.2229 23.5 10.5H24.5ZM23.9182 8.44658C23.7295 8.13983 23.5009 7.86101 23.2409 7.61606L22.5551 8.34394C22.7526 8.52993 22.925 8.74051 23.0665 8.97054L23.9182 8.44658ZM22.9071 7.48008C22.5737 7.474 22.2416 7.46514 21.9108 7.45355L21.8757 8.45293C22.2122 8.46473 22.5499 8.47373 22.8889 8.47992L22.9071 7.48008ZM20.9153 7.41021C20.2468 7.37541 19.584 7.3294 18.9274 7.27252L18.8411 8.26879C19.5091 8.32667 20.1834 8.37346 20.8634 8.40885L20.9153 7.41021ZM17.9358 7.17788C17.2696 7.10839 16.6103 7.02766 15.9585 6.93605L15.8193 7.92631C16.483 8.01959 17.1541 8.10177 17.8321 8.17249L17.9358 7.17788ZM14.9738 6.78847C14.3119 6.68308 13.6583 6.56638 13.0135 6.43878L12.8194 7.41975C13.4765 7.5498 14.1424 7.66869 14.8165 7.77603L14.9738 6.78847ZM12.0391 6.23617C11.7133 6.16513 11.39 6.09128 11.0691 6.01467L10.8369 6.98733C11.1641 7.06547 11.4939 7.14079 11.8261 7.21322L12.0391 6.23617ZM10.4556 6.55194C10.4621 6.61494 10.4701 6.67712 10.4768 6.72986L11.4689 6.60412C11.4616 6.54645 11.4553 6.49829 11.4504 6.45006L10.4556 6.55194ZM10.4938 6.87832C10.4978 6.9229 10.5 6.96268 10.5 7H11.5C11.5 6.92439 11.4956 6.85321 11.4897 6.78785L10.4938 6.87832ZM10.5 7V7.83333H11.5V7H10.5ZM10.5 8.66667V10.3333H11.5V8.66667H10.5ZM10.5 11.1667V12H11.5V11.1667H10.5ZM10.5 12C10.5 12.3273 10.4953 12.6443 10.4815 12.9507L11.4805 12.9954C11.4951 12.6692 11.5 12.3363 11.5 12H10.5ZM10.4039 13.8771C10.3187 14.5236 10.1657 15.0843 9.90752 15.5575L10.7854 16.0364C11.1221 15.4191 11.3004 14.7278 11.3953 14.0078L10.4039 13.8771ZM9.4138 16.2253C9.22922 16.4123 9.01016 16.5835 8.7484 16.7359L9.2516 17.6001C9.5864 17.4051 9.87621 17.1803 10.1255 16.9278L9.4138 16.2253ZM9.49811 17.1246L9.41495 16.1696L8.41872 16.2564L8.50189 17.2114L9.49811 17.1246ZM9.33178 15.2146L9.16545 13.3046L8.16922 13.3914L8.33555 15.3014L9.33178 15.2146ZM9.08228 12.3496L8.91595 10.4396L7.91972 10.5264L8.08605 12.4364L9.08228 12.3496ZM8.83278 9.48462L8.66645 7.57462L7.67022 7.66138L7.83655 9.57138L8.83278 9.48462ZM8.58328 6.61962L8.50011 5.66462L7.50389 5.75138L7.58705 6.70638L8.58328 6.61962ZM8.35555 5.35445C8.35554 5.35443 8.35543 5.35432 8.3553 5.3542C8.35517 5.35407 8.35496 5.35386 8.3547 5.3536C8.35422 5.35312 8.35331 5.35221 8.35217 5.35109C8.35022 5.34918 8.3454 5.34445 8.33907 5.33866L7.66381 6.07624C7.65763 6.07059 7.65297 6.06602 7.65121 6.06429C7.64945 6.06256 7.64791 6.06102 7.64845 6.06155L8.35555 5.35445ZM8.11571 5.22043C8.07316 5.21039 8.03867 5.20822 8.02295 5.20751C8.01462 5.20714 8.00803 5.20705 8.00497 5.20702C8.00328 5.20701 8.00192 5.207 8.0012 5.207C8.00081 5.207 8.0005 5.207 8.00031 5.207C8.00022 5.207 8.00014 5.207 8.00009 5.207C8.00005 5.207 8 5.207 8 5.207V6.207C8.00392 6.207 7.9915 6.20711 7.97795 6.2065C7.96249 6.2058 7.9282 6.20366 7.88585 6.19366L8.11571 5.22043ZM8.5 5.707V5.47133H7.5V5.707H8.5ZM8.5 5.23567V5H7.5V5.23567H8.5ZM8.5 5C8.5 4.65884 8.51101 4.32032 8.53269 3.98478L7.53477 3.9203C7.51171 4.27729 7.5 4.63731 7.5 5H8.5ZM8.63102 2.9749C8.7194 2.29726 8.85153 1.63348 9.02447 0.986454L8.05838 0.72824C7.87419 1.41736 7.7335 2.12419 7.63942 2.84557L8.63102 2.9749ZM9.31856 0.0157031C9.53717 -0.628504 9.79702 -1.25371 10.095 -1.85678L9.19841 -2.29972C8.88116 -1.65758 8.60444 -0.991769 8.3716 -0.305649L9.31856 0.0157031ZM10.5739 -2.751C10.9135 -3.33806 11.2906 -3.90083 11.7019 -4.43603L10.909 -5.04535C10.4713 -4.47577 10.0699 -3.87676 9.70832 -3.25178L10.5739 -2.751ZM12.346 -5.21995C12.7923 -5.72854 13.2715 -6.20766 13.78 -6.65403L13.1204 -7.40561C12.5792 -6.93063 12.0694 -6.42078 11.5944 -5.87959L12.346 -5.21995ZM14.564 -7.29809C15.0992 -7.70936 15.6619 -8.08645 16.249 -8.42611L15.7482 -9.29168C15.1232 -8.93009 14.5242 -8.52871 13.9546 -8.09102L14.564 -7.29809ZM17.1432 -8.90504C17.7463 -9.20298 18.3715 -9.46283 19.0157 -9.68144L18.6943 -10.6284C18.0082 -10.3956 17.3424 -10.1188 16.7003 -9.80159L17.1432 -8.90504ZM19.9865 -9.97553C20.6335 -10.1485 21.2973 -10.2806 21.9749 -10.369L21.8456 -11.3606C21.1242 -11.2665 20.4174 -11.1258 19.7282 -10.9416L19.9865 -9.97553ZM22.9848 -10.4673C23.3203 -10.489 23.6588 -10.5 24 -10.5V-11.5C23.6373 -11.5 23.2773 -11.4883 22.9203 -11.4652L22.9848 -10.4673ZM24 -10.5C24.3412 -10.5 24.6797 -10.489 25.0152 -10.4673L25.0797 -11.4652C24.7227 -11.4883 24.3627 -11.5 24 -11.5V-10.5ZM26.0251 -10.369C26.7027 -10.2806 27.3665 -10.1485 28.0135 -9.97553L28.2718 -10.9416C27.5826 -11.1258 26.8758 -11.2665 26.1544 -11.3606L26.0251 -10.369ZM28.9843 -9.68144C29.6285 -9.46283 30.2537 -9.20298 30.8568 -8.90504L31.2997 -9.80159C30.6576 -10.1188 29.9918 -10.3956 29.3056 -10.6284L28.9843 -9.68144ZM31.751 -8.42611C32.3381 -8.08645 32.9008 -7.70936 33.436 -7.2981L34.0453 -8.09102C33.4758 -8.52871 32.8768 -8.93009 32.2518 -9.29168L31.751 -8.42611ZM34.22 -6.65403C34.7285 -6.20766 35.2077 -5.72854 35.654 -5.21995L36.4056 -5.87959C35.9306 -6.42078 35.4208 -6.93063 34.8796 -7.40561L34.22 -6.65403ZM36.2981 -4.43603C36.7094 -3.90083 37.0865 -3.33806 37.4261 -2.751L38.2917 -3.25179C37.9301 -3.87677 37.5287 -4.47577 37.091 -5.04535L36.2981 -4.43603ZM37.905 -1.85678C38.203 -1.25371 38.4628 -0.628506 38.6814 0.0157014L39.6284 -0.305651C39.3956 -0.99177 39.1188 -1.65758 38.8016 -2.29972L37.905 -1.85678ZM38.9755 0.986453C39.1485 1.63348 39.2806 2.29726 39.369 2.9749L40.3606 2.84557C40.2665 2.12419 40.1258 1.41736 39.9416 0.728238L38.9755 0.986453ZM39.4673 3.98478C39.489 4.32032 39.5 4.65884 39.5 5H40.5C40.5 4.63731 40.4883 4.27729 40.4652 3.9203L39.4673 3.98478ZM39.5 5V5.22467H40.5V5H39.5ZM39.5 5.44933V5.674H40.5V5.44933H39.5ZM39.7942 6.12968L39.8045 6.13435L40.2161 5.22299L40.2058 5.21832L39.7942 6.12968ZM39.8149 6.13901L39.8252 6.14368L40.2368 5.23232L40.2265 5.22765L39.8149 6.13901ZM39 17.168L38.497 18.0323L39.8554 18.8229L39.996 17.2574L39 17.168ZM37.017 12.885L38.0162 12.8458L36.0278 12.7388L37.017 12.885ZM37 13L36.0328 13.2539L37.9892 13.1462L37 13ZM35.95 9L34.9562 9.11145L34.9643 9.18364L34.9828 9.2539L35.95 9ZM27.05 9V10H27.9441L28.0438 9.11145L27.05 9ZM26.95 9V8H25.8562L25.954 9.08946L26.95 9ZM18 13.71H17V14.1784L17.3599 14.4783L18 13.71ZM18 12.944L18.7153 12.2452L17 10.4894V12.944H18ZM22.898 7.98L23.5837 7.25212L23.3025 6.98721L22.9162 6.98017L22.898 7.98ZM10.953 6.501L11.1852 5.52834L9.81464 5.20107L9.9582 6.60288L10.953 6.501ZM9 17.168L8.00377 17.2548L8.14057 18.8256L9.50321 18.0322L9 17.168ZM8.002 5.708L8.99823 5.62124L8.96663 5.25842L8.70911 5.00089L8.002 5.708ZM8 5.707H7V6.707H8V5.707ZM40 5.674H39V6.31962L39.5884 6.58536L40 5.674ZM39.035 5.59855L38.9491 6.55522L40.9411 6.73411L41.027 5.77745L39.035 5.59855ZM38.8632 7.51188L38.6913 9.42522L40.6833 9.60411L40.8552 7.69078L38.8632 7.51188ZM38.6054 10.3819L38.4336 12.2952L40.4256 12.4741L40.5974 10.5608L38.6054 10.3819ZM38.3477 13.2519L38.1758 15.1652L40.1678 15.3441L40.3397 13.4308L38.3477 13.2519ZM38.0899 16.1219L38.004 17.0786L39.996 17.2574L40.0819 16.3008L38.0899 16.1219ZM39.503 16.3037C39.3132 16.1933 39.1534 16.0736 39.0173 15.947L37.6555 17.4118C37.9046 17.6434 38.1847 17.8505 38.497 18.0323L39.503 16.3037ZM38.6418 15.5017C38.4314 15.1807 38.2805 14.7904 38.1789 14.3148L36.223 14.7329C36.3617 15.3814 36.5894 16.0189 36.9692 16.5983L38.6418 15.5017ZM38.0688 13.6034C38.0434 13.3631 38.0266 13.1107 38.0162 12.8458L36.0178 12.9242C36.0295 13.2225 36.0488 13.52 36.0798 13.8135L38.0688 13.6034ZM36.0278 12.7388L36.0221 12.7771L38.0006 13.0696L38.0062 13.0312L36.0278 12.7388ZM36.0164 12.8154L36.0108 12.8538L37.9892 13.1462L37.9949 13.1079L36.0164 12.8154ZM37.9672 12.7461L37.6172 11.4128L35.6828 11.9206L36.0328 13.2539L37.9672 12.7461ZM37.2672 10.0794L36.9172 8.7461L34.9828 9.2539L35.3328 10.5872L37.2672 10.0794ZM36.9438 8.88855C36.8934 8.4393 36.7894 8.00558 36.6381 7.59452L34.7612 8.28534C34.8575 8.54702 34.924 8.82372 34.9562 9.11145L36.9438 8.88855ZM36.0313 6.41063C35.5325 5.67294 34.8597 5.0625 34.0686 4.6402L33.1267 6.40453C33.6273 6.67178 34.056 7.05978 34.3745 7.53085L36.0313 6.41063ZM32.8224 4.16108C32.3981 4.05564 31.955 4 31.5 4V6C31.7915 6 32.0726 6.03559 32.34 6.10204L32.8224 4.16108ZM31.5 4C31.045 4 30.6019 4.05564 30.1776 4.16108L30.66 6.10204C30.9274 6.03559 31.2085 6 31.5 6V4ZM28.9314 4.6402C28.1403 5.0625 27.4675 5.67294 26.9687 6.41063L28.6255 7.53085C28.944 7.05978 29.3727 6.67178 29.8733 6.40453L28.9314 4.6402ZM26.3619 7.59452C26.2106 8.00558 26.1066 8.4393 26.0562 8.88855L28.0438 9.11145C28.076 8.82372 28.1425 8.54702 28.2388 8.28534L26.3619 7.59452ZM27.05 8H27.0167V10H27.05V8ZM26.9833 8H26.95V10H26.9833V8ZM25.954 9.08946C25.9612 9.16977 25.9713 9.24489 25.9786 9.29975L27.9608 9.03311C27.9533 8.97744 27.9488 8.94195 27.946 8.91054L25.954 9.08946ZM25.9958 9.43508C25.9992 9.46839 26 9.488 26 9.5H28C28 9.39885 27.9932 9.3073 27.9852 9.23039L25.9958 9.43508ZM26 9.5C26 9.76786 25.9767 10.0295 25.9323 10.2831L27.9023 10.6281C27.9666 10.261 28 9.88401 28 9.5H26ZM25.7301 11.0397C25.5492 11.5368 25.2827 11.9937 24.9478 12.3924L26.4793 13.6787C26.9619 13.1041 27.3473 12.444 27.6095 11.7237L25.7301 11.0397ZM24.3924 12.9478C23.9937 13.2827 23.5368 13.5492 23.0397 13.7301L23.7237 15.6095C24.444 15.3473 25.1041 14.9619 25.6787 14.4793L24.3924 12.9478ZM22.2831 13.9323C22.0295 13.9767 21.7679 14 21.5 14V16C21.884 16 22.261 15.9666 22.6281 15.9023L22.2831 13.9323ZM21.5 14C21.1468 14 20.8054 13.9575 20.4786 13.8782L20.007 15.8218C20.4858 15.938 20.9854 16 21.5 16V14ZM19.5111 13.5183C19.2009 13.3598 18.909 13.1657 18.6401 12.9417L17.3599 14.4783C17.7391 14.7942 18.1547 15.0712 18.6012 15.2993L19.5111 13.5183ZM19 13.71V13.4547H17V13.71H19ZM19 13.1993V12.944H17V13.1993H19ZM17.2847 13.6428C17.5615 13.9261 17.8756 14.1737 18.2196 14.3771L19.2375 12.6555C19.0462 12.5424 18.8706 12.4042 18.7153 12.2452L17.2847 13.6428ZM19.3184 14.8422C19.6958 14.9452 20.0921 15 20.5 15V13C20.2718 13 20.0525 12.9694 19.845 12.9128L19.3184 14.8422ZM20.5 15C20.9014 15 21.2919 14.9472 21.6644 14.8476L21.148 12.9155C20.9424 12.9704 20.7254 13 20.5 13V15ZM22.7511 14.3972C23.4336 14.0023 24.0023 13.4336 24.3972 12.7511L22.666 11.7495C22.4463 12.1292 22.1292 12.4463 21.7495 12.666L22.7511 14.3972ZM24.8476 11.6644C24.9472 11.2919 25 10.9014 25 10.5H23C23 10.7254 22.9704 10.9424 22.9155 11.148L24.8476 11.6644ZM25 10.5C25 10.0829 24.9419 9.67912 24.8332 9.29593L22.9091 9.84179C22.968 10.0494 23 10.2696 23 10.5H25ZM24.3441 8.1846C24.1318 7.8395 23.875 7.52655 23.5837 7.25212L22.2123 8.70788C22.3784 8.8644 22.5227 9.04085 22.6406 9.23251L24.3441 8.1846ZM22.9162 6.98017C22.5857 6.97414 22.2563 6.96535 21.9283 6.95385L21.8582 8.95262C22.1975 8.96452 22.538 8.9736 22.8798 8.97983L22.9162 6.98017ZM20.9413 6.91088C20.2785 6.87638 19.6214 6.83077 18.9706 6.77439L18.798 8.76693C19.4717 8.8253 20.1517 8.87249 20.8374 8.90818L20.9413 6.91088ZM17.9877 6.68058C17.3274 6.61171 16.674 6.53169 16.0281 6.44091L15.7497 8.42144C16.4193 8.51556 17.0963 8.59846 17.7802 8.66979L17.9877 6.68058ZM15.0524 6.29469C14.3966 6.19027 13.7492 6.07467 13.1106 5.94829L12.7223 7.91024C13.3856 8.04151 14.0577 8.16149 14.7379 8.26981L15.0524 6.29469ZM12.1457 5.74765C11.823 5.67731 11.5029 5.60419 11.1852 5.52834L10.7208 7.47366C11.0512 7.55257 11.3842 7.62861 11.7196 7.70174L12.1457 5.74765ZM9.9582 6.60288C9.96541 6.67326 9.97441 6.74245 9.98078 6.79272L11.9649 6.54125C11.9573 6.48111 11.952 6.43997 11.9478 6.39912L9.9582 6.60288ZM9.99584 6.92356C9.99894 6.95774 10 6.98182 10 7H12C12 6.90525 11.9945 6.81836 11.9876 6.74261L9.99584 6.92356ZM10 7V7.83333H12V7H10ZM10 8.66667V10.3333H12V8.66667H10ZM10 11.1667V12H12V11.1667H10ZM10 12C10 12.3228 9.99531 12.6319 9.98203 12.9283L11.98 13.0178C11.9951 12.6817 12 12.3408 12 12H10ZM9.9082 13.8118C9.82784 14.4215 9.68746 14.9168 9.46859 15.318L11.2243 16.2759C11.6004 15.5866 11.7913 14.8299 11.891 14.0732L9.9082 13.8118ZM9.05797 15.874C8.90572 16.0282 8.72205 16.1727 8.49679 16.3038L9.50321 18.0322C9.87451 17.816 10.1997 17.5643 10.4813 17.2791L9.05797 15.874ZM9.99623 17.0812L9.91306 16.1262L7.9206 16.2998L8.00377 17.2548L9.99623 17.0812ZM9.8299 15.1712L9.66356 13.2612L7.6711 13.4348L7.83744 15.3448L9.8299 15.1712ZM9.5804 12.3062L9.41406 10.3962L7.4216 10.5698L7.58794 12.4798L9.5804 12.3062ZM9.3309 9.44124L9.16456 7.53124L7.1721 7.70476L7.33844 9.61476L9.3309 9.44124ZM9.0814 6.57624L8.99823 5.62124L7.00577 5.79476L7.08894 6.74976L9.0814 6.57624ZM8.70911 5.00089C8.7091 5.00089 8.70891 5.0007 8.70869 5.00048C8.70846 5.00025 8.70806 4.99985 8.70757 4.99936C8.70666 4.99845 8.70488 4.99669 8.70264 4.99448C8.69884 4.99075 8.68928 4.98139 8.6767 4.96987L7.32618 6.44503C7.31375 6.43365 7.30435 6.42445 7.30073 6.4209C7.29712 6.41734 7.29394 6.41415 7.29489 6.41511L8.70911 5.00089ZM8.23064 4.73382C8.14564 4.71375 8.07676 4.70943 8.04545 4.70802C8.02885 4.70727 8.01574 4.7071 8.00969 4.70705C8.00634 4.70701 8.00367 4.70701 8.00226 4.707C8.00151 4.707 8.00091 4.707 8.00056 4.707C8.00038 4.707 8.00024 4.707 8.00015 4.707C8.0001 4.707 8.00007 4.707 8.00004 4.707C8.00002 4.707 8 4.707 8 4.707V6.707C8.00765 6.707 7.98267 6.70722 7.95545 6.70599C7.9244 6.70459 7.85573 6.7003 7.77092 6.68027L8.23064 4.73382ZM9 5.707V5.47133H7V5.707H9ZM9 5.23567V5H7V5.23567H9ZM9 5C9 4.6696 9.01067 4.34184 9.03165 4.01702L7.03581 3.88806C7.01206 4.25578 7 4.62655 7 5H9ZM9.12682 3.03956C9.21235 2.38379 9.3402 1.74154 9.50751 1.11556L7.57534 0.599133C7.38552 1.30931 7.24056 2.03766 7.14362 2.7809L9.12682 3.03956ZM9.79204 0.176379C10.0035 -0.446872 10.2549 -1.05178 10.5432 -1.63531L8.75014 -2.52119C8.42323 -1.85951 8.13807 -1.1734 7.89812 -0.466326L9.79204 0.176379ZM11.0067 -2.5006C11.3354 -3.06871 11.7003 -3.61336 12.0984 -4.13137L10.5125 -5.35001C10.0616 -4.76324 9.6481 -4.14612 9.27554 -3.50218L11.0067 -2.5006ZM12.7218 -4.89013C13.1538 -5.38241 13.6176 -5.84618 14.1099 -6.27823L12.7906 -7.7814C12.2331 -7.29211 11.7079 -6.76691 11.2186 -6.2094L12.7218 -4.89013ZM14.8686 -6.90163C15.3866 -7.29969 15.9313 -7.66463 16.4994 -7.99332L15.4978 -9.72446C14.8539 -9.3519 14.2368 -8.93838 13.65 -8.48748L14.8686 -6.90163ZM17.3647 -8.45676C17.9482 -8.74506 18.5531 -8.99646 19.1764 -9.20796L18.5337 -11.1019C17.8266 -10.8619 17.1405 -10.5768 16.4788 -10.2499L17.3647 -8.45676ZM20.1156 -9.49249C20.7415 -9.6598 21.3838 -9.78765 22.0396 -9.87318L21.7809 -11.8564C21.0377 -11.7594 20.3093 -11.6145 19.5991 -11.4247L20.1156 -9.49249ZM23.017 -9.96835C23.3418 -9.98933 23.6696 -10 24 -10V-12C23.6265 -12 23.2558 -11.9879 22.8881 -11.9642L23.017 -9.96835ZM24 -10C24.3304 -10 24.6582 -9.98933 24.983 -9.96835L25.1119 -11.9642C24.7442 -11.9879 24.3734 -12 24 -12V-10ZM25.9604 -9.87318C26.6162 -9.78765 27.2585 -9.6598 27.8844 -9.49249L28.4009 -11.4247C27.6907 -11.6145 26.9623 -11.7594 26.2191 -11.8564L25.9604 -9.87318ZM28.8236 -9.20796C29.4469 -8.99646 30.0518 -8.74506 30.6353 -8.45676L31.5212 -10.2499C30.8595 -10.5768 30.1734 -10.8619 29.4663 -11.1019L28.8236 -9.20796ZM31.5006 -7.99332C32.0687 -7.66463 32.6134 -7.29969 33.1314 -6.90163L34.35 -8.48749C33.7632 -8.93838 33.1461 -9.3519 32.5022 -9.72446L31.5006 -7.99332ZM33.8901 -6.27823C34.3824 -5.84618 34.8462 -5.38241 35.2782 -4.89013L36.7814 -6.2094C36.2921 -6.76691 35.7669 -7.29211 35.2094 -7.7814L33.8901 -6.27823ZM35.9016 -4.13137C36.2997 -3.61336 36.6646 -3.06871 36.9933 -2.5006L38.7245 -3.50218C38.3519 -4.14612 37.9384 -4.76324 37.4875 -5.35001L35.9016 -4.13137ZM37.4568 -1.63531C37.7451 -1.05178 37.9965 -0.446874 38.208 0.176378L40.1019 -0.466328C39.8619 -1.1734 39.5768 -1.85951 39.2499 -2.52119L37.4568 -1.63531ZM38.4925 1.11556C38.6598 1.74153 38.7876 2.38379 38.8732 3.03956L40.8564 2.7809C40.7594 2.03766 40.6145 1.30931 40.4247 0.599131L38.4925 1.11556ZM38.9683 4.01702C38.9893 4.34184 39 4.6696 39 5H41C41 4.62655 40.9879 4.25578 40.9642 3.88806L38.9683 4.01702ZM39 5V5.22467H41V5H39ZM39 5.44933V5.674H41V5.44933H39ZM39.5884 6.58536L39.5987 6.59003L40.4219 4.7673L40.4116 4.76264L39.5884 6.58536ZM39.6091 6.5947L39.6194 6.59936L40.4426 4.77664L40.4323 4.77197L39.6091 6.5947Z" fill="#004FA3" mask="url(#path-20-inside-1_7627_5180)"/></g></g><rect x="1.5" y="1.5" width="45" height="45" rx="14.5" stroke="#004FA3" stroke-width="3"/><defs><clipPath id="clip0_7627_5180"><rect width="48" height="48" rx="16" fill="white"/></clipPath></defs></svg>